<svg width="64" height="64" viewBox="0 0 64 64" fill="none" xmlns="http://www.w3.org/2000/svg">
<path d="M50.6667 58.6666H13.3333C10.3878 58.6666 8 56.2788 8 53.3333V15.9999C8 13.0544 10.3878 10.6666 13.3333 10.6666H18.6667V5.33325H24V10.6666H40V5.33325H45.3333V10.6666H50.6667C53.6122 10.6666 56 13.0544 56 15.9999V53.3333C56 56.2788 53.6122 58.6666 50.6667 58.6666ZM13.3333 26.6666V53.3333H50.6667V26.6666H13.3333ZM13.3333 15.9999V21.3333H50.6667V15.9999H13.3333ZM29.3333 49.1039L19.448 39.2186L23.2187 35.4479L29.3333 41.5626L40.7813 30.1146L44.552 33.8853L29.3333 49.1013V49.1039Z" fill="#F5DF4D"/>
</svg>
