<svg width="64" height="64" viewBox="0 0 64 64" fill="none" xmlns="http://www.w3.org/2000/svg">
<path d="M14.6667 54.6667C13.1939 54.6667 12 53.4728 12 52V12C12 10.5273 13.1939 9.33332 14.6667 9.33332H31.68C32.6938 9.32633 33.6238 9.8947 34.08 10.8L36 14.6667H49.3333C50.8061 14.6667 52 15.8606 52 17.3334V38.6667C52 40.1395 50.8061 41.3334 49.3333 41.3334H34.96C33.9558 41.3303 33.0385 40.7635 32.5867 39.8667L30.6667 36H17.3333V52C17.3333 53.4728 16.1394 54.6667 14.6667 54.6667ZM17.3333 14.6667V30.6667H33.3333L36 36H46.6667V20H33.3333L30.6667 14.6667H17.3333Z" fill="#F5DF4D"/>
</svg>
