<svg width="64" height="64" viewBox="0 0 64 64" fill="none" xmlns="http://www.w3.org/2000/svg">
<path d="M8 56V13.3333C8 10.3878 10.3878 8 13.3333 8H50.6667C53.6122 8 56 10.3878 56 13.3333V40C56 42.9455 53.6122 45.3333 50.6667 45.3333H24C22.8457 45.3312 21.7222 45.7057 20.8 46.4L8 56ZM13.3333 13.3333V45.3333L19.024 41.0667C19.9457 40.3715 21.0695 39.9969 22.224 40H50.6667V13.3333H13.3333ZM29.3333 36.1627L19.448 26.2747L23.2187 22.5067L29.3333 28.6213L40.7813 17.1733L44.552 20.944L29.3333 36.16V36.1627Z" fill="#F5DF4D"/>
</svg>
