<svg width="64" height="64" viewBox="0 0 64 64" fill="none" xmlns="http://www.w3.org/2000/svg">
<path d="M32.0002 58.6666C17.2726 58.6666 5.3335 46.7275 5.3335 31.9999C5.3335 17.2723 17.2726 5.33325 32.0002 5.33325C46.7278 5.33325 58.6668 17.2723 58.6668 31.9999C58.6507 46.7208 46.7211 58.6504 32.0002 58.6666ZM32.0002 10.6666C20.2181 10.6666 10.6668 20.2178 10.6668 31.9999C10.6668 43.782 20.2181 53.3333 32.0002 53.3333C43.7822 53.3333 53.3335 43.782 53.3335 31.9999C53.3203 20.2233 43.7768 10.6798 32.0002 10.6666ZM32.0002 47.9999C27.7869 48.0712 23.8044 46.08 21.3335 42.6666C20.1337 41.062 19.2306 39.2558 18.6668 37.3333H45.3335C45.3335 37.3333 45.3335 37.3333 45.3335 37.3546C44.761 39.2672 43.8586 41.0649 42.6668 42.6666C40.1956 46.0796 36.2133 48.0708 32.0002 47.9999ZM22.6668 31.9999C20.4577 31.9999 18.6668 30.2091 18.6668 27.9999C18.6668 25.7908 20.4577 23.9999 22.6668 23.9999C24.876 23.9999 26.6668 25.7908 26.6668 27.9999C26.6668 30.2091 24.876 31.9999 22.6668 31.9999ZM41.3148 31.9626C39.116 31.9626 37.3335 30.1801 37.3335 27.9813C37.3335 25.7824 39.116 23.9999 41.3148 23.9999C43.5137 23.9999 45.2962 25.7824 45.2962 27.9813C45.2932 30.1789 43.5124 31.9596 41.3148 31.9626Z" fill="#F5DF4D"/>
</svg>
